<svg xmlns="http://www.w3.org/2000/svg" xmlns:xlink="http://www.w3.org/1999/xlink" width="48.353" height="254.354" viewBox="0 0 48.353 254.354"><defs><style>.a,.b,.c,.e{fill:none;}.a{stroke:#148fe2;}.b{stroke:#1073b5;}.c{stroke:#217ecf;}.d{stroke:none;}.f{filter:url(#o);}.g{filter:url(#m);}.h{filter:url(#k);}.i{filter:url(#i);}.j{filter:url(#g);}.k{filter:url(#e);}.l{filter:url(#c);}.m{filter:url(#a);}</style><filter id="a" x="9.276" y="0" width="39.077" height="75.354" filterUnits="userSpaceOnUse"><feOffset input="SourceAlpha"/><feGaussianBlur stdDeviation="3" result="b"/><feFlood flood-color="#148fe2"/><feComposite operator="in" in2="b"/><feComposite in="SourceGraphic"/></filter><filter id="c" x="9.5" y="77.354" width="19" height="51" filterUnits="userSpaceOnUse"><feOffset input="SourceAlpha"/><feGaussianBlur stdDeviation="3" result="d"/><feFlood flood-color="#1073b5"/><feComposite operator="in" in2="d"/><feComposite in="SourceGraphic"/></filter><filter id="e" x="0" y="110.354" width="38" height="38" filterUnits="userSpaceOnUse"><feOffset input="SourceAlpha"/><feGaussianBlur stdDeviation="3" result="f"/><feFlood flood-color="#217ecf"/><feComposite operator="in" in2="f"/><feComposite in="SourceGraphic"/></filter><filter id="g" x="9.5" y="130.354" width="19" height="51" filterUnits="userSpaceOnUse"><feOffset input="SourceAlpha"/><feGaussianBlur stdDeviation="3" result="h"/><feFlood flood-color="#1073b5"/><feComposite operator="in" in2="h"/><feComposite in="SourceGraphic"/></filter><filter id="i" x="0" y="163.354" width="38" height="38" filterUnits="userSpaceOnUse"><feOffset input="SourceAlpha"/><feGaussianBlur stdDeviation="3" result="j"/><feFlood flood-color="#217ecf"/><feComposite operator="in" in2="j"/><feComposite in="SourceGraphic"/></filter><filter id="k" x="0" y="216.354" width="38" height="38" filterUnits="userSpaceOnUse"><feOffset input="SourceAlpha"/><feGaussianBlur stdDeviation="3" result="l"/><feFlood flood-color="#217ecf"/><feComposite operator="in" in2="l"/><feComposite in="SourceGraphic"/></filter><filter id="m" x="9.5" y="183.354" width="19" height="51" filterUnits="userSpaceOnUse"><feOffset input="SourceAlpha"/><feGaussianBlur stdDeviation="3" result="n"/><feFlood flood-color="#1073b5"/><feComposite operator="in" in2="n"/><feComposite in="SourceGraphic"/></filter><filter id="o" x="0" y="57.354" width="38" height="38" filterUnits="userSpaceOnUse"><feOffset input="SourceAlpha"/><feGaussianBlur stdDeviation="3" result="p"/><feFlood flood-color="#217ecf"/><feComposite operator="in" in2="p"/><feComposite in="SourceGraphic"/></filter></defs><g transform="translate(-282 -65.646)"><g class="m" transform="matrix(1, 0, 0, 1, 282, 65.65)"><path class="a" d="M325,821l-20.224,20.224V878" transform="translate(-286 -811.65)"/></g><g class="l" transform="matrix(1, 0, 0, 1, 282, 65.65)"><path class="b" d="M301,895v33" transform="translate(-282 -808.65)"/></g><g class="k" transform="matrix(1, 0, 0, 1, 282, 65.65)"><g class="c" transform="translate(9 119.35)"><circle class="d" cx="10" cy="10" r="10"/><circle class="e" cx="10" cy="10" r="9.5"/></g></g><g class="j" transform="matrix(1, 0, 0, 1, 282, 65.65)"><path class="b" d="M301,895v33" transform="translate(-282 -755.65)"/></g><g class="i" transform="matrix(1, 0, 0, 1, 282, 65.65)"><g class="c" transform="translate(9 172.35)"><circle class="d" cx="10" cy="10" r="10"/><circle class="e" cx="10" cy="10" r="9.5"/></g></g><g class="h" transform="matrix(1, 0, 0, 1, 282, 65.65)"><g class="c" transform="translate(9 225.35)"><circle class="d" cx="10" cy="10" r="10"/><circle class="e" cx="10" cy="10" r="9.5"/></g></g><g class="g" transform="matrix(1, 0, 0, 1, 282, 65.65)"><path class="b" d="M301,895v33" transform="translate(-282 -702.65)"/></g><g class="f" transform="matrix(1, 0, 0, 1, 282, 65.65)"><g class="c" transform="translate(9 66.35)"><circle class="d" cx="10" cy="10" r="10"/><circle class="e" cx="10" cy="10" r="9.5"/></g></g></g></svg>