<svg 
 xmlns="http://www.w3.org/2000/svg"
 xmlns:xlink="http://www.w3.org/1999/xlink"
 width="356px" height="123px">
<path fill-rule="evenodd"  stroke="rgb(11, 113, 239)" stroke-width="4.43px" stroke-linecap="butt" stroke-linejoin="miter" fill="none"
 d="M12.836,80.202 C12.836,80.202 35.499,64.097 40.454,66.564 C45.531,69.093 56.585,69.276 61.246,66.211 C65.964,63.109 73.822,55.434 78.668,55.169 C83.601,54.899 87.698,55.436 97.135,50.899 C106.825,46.240 107.616,44.115 118.153,45.652 C129.119,47.253 147.984,40.053 159.782,31.184 C171.881,22.090 179.423,23.664 189.182,25.869 C199.283,28.151 210.935,23.370 233.600,15.026 C257.515,6.222 283.297,20.764 305.785,28.664 C328.430,36.619 349.108,34.439 346.526,51.809 C343.906,69.430 361.905,67.777 356.455,73.070 "/>
</svg>